<mxfile host="app.diagrams.net" modified="2023-12-08T16:42:03.973Z" agent="Mozilla/5.0 (Windows NT 10.0; Win64; x64) AppleWebKit/537.36 (KHTML, like Gecko) Chrome/119.0.0.0 Safari/537.36" etag="ozOL9WOiqSbSV8yA7ofj" version="22.1.7" type="onedrive">
  <diagram name="Page-1" id="iaWcJhKdrhirkMaxKd2l">
    <mxGraphModel grid="1" page="1" gridSize="10" guides="1" tooltips="1" connect="1" arrows="1" fold="1" pageScale="1" pageWidth="827" pageHeight="1169" math="0" shadow="0">
      <root>
        <mxCell id="0" />
        <mxCell id="1" parent="0" />
        <mxCell id="oSIW4et5G9Pb2JlC0xF--1" value="Stack Values Passed to Second Stage" style="text;html=1;strokeColor=none;fillColor=none;align=center;verticalAlign=middle;whiteSpace=wrap;rounded=0;" vertex="1" parent="1">
          <mxGeometry x="325" y="280" width="210" height="30" as="geometry" />
        </mxCell>
        <mxCell id="oSIW4et5G9Pb2JlC0xF--2" value="esp at 0x3520_startUnpacking" style="text;html=1;strokeColor=none;fillColor=none;align=center;verticalAlign=middle;whiteSpace=wrap;rounded=0;" vertex="1" parent="1">
          <mxGeometry x="160" y="310" width="170" height="30" as="geometry" />
        </mxCell>
        <mxCell id="oSIW4et5G9Pb2JlC0xF--3" value="..." style="rounded=0;whiteSpace=wrap;html=1;container=0;" vertex="1" parent="1">
          <mxGeometry x="330" y="310" width="200" height="30" as="geometry" />
        </mxCell>
        <mxCell id="oSIW4et5G9Pb2JlC0xF--6" value="..." style="rounded=0;whiteSpace=wrap;html=1;container=0;" vertex="1" parent="1">
          <mxGeometry x="330" y="460" width="200" height="30" as="geometry" />
        </mxCell>
        <mxCell id="oSIW4et5G9Pb2JlC0xF--38" value="0x4" style="rounded=0;whiteSpace=wrap;html=1;container=0;" vertex="1" parent="1">
          <mxGeometry x="330" y="370" width="200" height="30" as="geometry" />
        </mxCell>
        <mxCell id="oSIW4et5G9Pb2JlC0xF--39" value="0x265e8" style="rounded=0;whiteSpace=wrap;html=1;container=0;" vertex="1" parent="1">
          <mxGeometry x="330" y="400" width="200" height="30" as="geometry" />
        </mxCell>
        <mxCell id="oSIW4et5G9Pb2JlC0xF--40" value="0x85000" style="rounded=0;whiteSpace=wrap;html=1;container=0;" vertex="1" parent="1">
          <mxGeometry x="330" y="430" width="200" height="30" as="geometry" />
        </mxCell>
        <mxCell id="oSIW4et5G9Pb2JlC0xF--41" value="esp+0x60: returnArr+0x3c" style="text;html=1;strokeColor=none;fillColor=none;align=center;verticalAlign=middle;whiteSpace=wrap;rounded=0;" vertex="1" parent="1">
          <mxGeometry x="180" y="340" width="150" height="30" as="geometry" />
        </mxCell>
        <mxCell id="oSIW4et5G9Pb2JlC0xF--42" value="esp+0x64: returnArr+0x40" style="text;html=1;strokeColor=none;fillColor=none;align=center;verticalAlign=middle;whiteSpace=wrap;rounded=0;" vertex="1" parent="1">
          <mxGeometry x="180" y="370" width="150" height="30" as="geometry" />
        </mxCell>
        <mxCell id="oSIW4et5G9Pb2JlC0xF--43" value="esp+0x68: returnArr+0x44" style="text;html=1;strokeColor=none;fillColor=none;align=center;verticalAlign=middle;whiteSpace=wrap;rounded=0;" vertex="1" parent="1">
          <mxGeometry x="180" y="400" width="150" height="30" as="geometry" />
        </mxCell>
        <mxCell id="oSIW4et5G9Pb2JlC0xF--44" value="esp+0x6c: returnArr+0x48" style="text;html=1;strokeColor=none;fillColor=none;align=center;verticalAlign=middle;whiteSpace=wrap;rounded=0;" vertex="1" parent="1">
          <mxGeometry x="180" y="430" width="150" height="30" as="geometry" />
        </mxCell>
        <mxCell id="oSIW4et5G9Pb2JlC0xF--45" value="newestRWMem" style="rounded=0;whiteSpace=wrap;html=1;container=0;" vertex="1" parent="1">
          <mxGeometry x="330" y="340" width="200" height="30" as="geometry" />
        </mxCell>
        <mxCell id="oSIW4et5G9Pb2JlC0xF--46" value="" style="endArrow=none;html=1;rounded=0;exitX=1;exitY=1;exitDx=0;exitDy=0;entryX=1;entryY=0;entryDx=0;entryDy=0;edgeStyle=orthogonalEdgeStyle;" edge="1" parent="1" source="oSIW4et5G9Pb2JlC0xF--40" target="oSIW4et5G9Pb2JlC0xF--45">
          <mxGeometry width="50" height="50" relative="1" as="geometry">
            <mxPoint x="360" y="440" as="sourcePoint" />
            <mxPoint x="410" y="390" as="targetPoint" />
            <Array as="points">
              <mxPoint x="570" y="460" />
              <mxPoint x="570" y="340" />
            </Array>
          </mxGeometry>
        </mxCell>
        <mxCell id="oSIW4et5G9Pb2JlC0xF--47" value="unpackFunc_d" style="text;html=1;strokeColor=none;fillColor=none;align=center;verticalAlign=middle;whiteSpace=wrap;rounded=0;" vertex="1" parent="1">
          <mxGeometry x="570" y="380" width="90" height="30" as="geometry" />
        </mxCell>
      </root>
    </mxGraphModel>
  </diagram>
</mxfile>
